<svg width="1440" height="820" viewBox="0 0 1440 820" fill="none" xmlns="http://www.w3.org/2000/svg">
<g clip-path="url(#clip0_89013_11)">
<rect width="1440" height="820" fill="#030014"/>
<g clip-path="url(#clip1_89013_11)">
<ellipse cx="720" cy="111" rx="823" ry="354" fill="url(#paint0_radial_89013_11)"/>
<g opacity="0.4">
<rect opacity="0.4" x="1072.14" y="563.792" width="1.25798" height="1.25798" fill="white"/>
<rect x="1318.02" y="492.966" width="1.25798" height="1.25798" fill="white"/>
<rect x="1246.92" y="233.197" width="1.25798" height="1.25798" fill="white"/>
<rect x="27.0509" y="787.491" width="1.25798" height="1.25798" fill="white"/>
<rect opacity="0.4" x="581.753" y="85.033" width="1.25798" height="1.25798" fill="white"/>
<rect opacity="0.4" x="176.897" y="615" width="1.25798" height="1.25798" fill="white"/>
<rect opacity="0.4" x="1269.39" y="812.294" width="1.25798" height="1.25798" fill="white"/>
<rect x="729.192" y="552.747" width="1.25798" height="1.25798" fill="white"/>
<rect opacity="0.4" x="1397.83" y="95.4905" width="1.25798" height="1.25798" fill="white"/>
<rect x="1172.1" y="514.845" width="1.25798" height="1.25798" fill="white"/>
<rect x="1149.78" y="793.837" width="1.25798" height="1.25798" fill="white"/>
<rect x="957.588" y="475.134" width="1.25798" height="1.25798" fill="white"/>
<rect opacity="0.4" x="808.779" y="750.69" width="1.25798" height="1.25798" fill="white"/>
<rect opacity="0.4" x="770.839" y="634.585" width="1.25798" height="1.25798" fill="white"/>
<rect opacity="0.4" x="438.894" y="76.8047" width="1.25798" height="1.25798" fill="white"/>
<rect x="293.493" y="23.4568" width="1.25798" height="1.25798" fill="white"/>
<rect x="286.15" y="288.822" width="1.25798" height="1.25798" fill="white"/>
<rect x="975.733" y="426.149" width="1.25798" height="1.25798" fill="white"/>
<rect opacity="0.4" x="396.523" y="97.9014" width="1.25798" height="1.25798" fill="white"/>
<rect opacity="0.4" x="1387.84" y="280.822" width="1.25798" height="1.25798" fill="white"/>
<rect opacity="0.4" x="441.06" y="818.698" width="1.25798" height="1.25798" fill="white"/>
<rect opacity="0.4" x="1207.79" y="513.554" width="1.25798" height="1.25798" fill="white"/>
<rect x="1148.43" y="562.093" width="1.25798" height="1.25798" fill="white"/>
<rect opacity="0.4" x="526.245" y="729.627" width="1.25798" height="1.25798" fill="white"/>
<rect opacity="0.4" x="1184.93" y="593.846" width="1.25798" height="1.25798" fill="white"/>
<rect x="1126.47" y="748.231" width="1.25798" height="1.25798" fill="white"/>
<rect x="184.136" y="401.714" width="1.25798" height="1.25798" fill="white"/>
<rect x="229.587" y="114.049" width="1.25798" height="1.25798" fill="white"/>
<rect x="416.884" y="621.822" width="1.25798" height="1.25798" fill="white"/>
<rect x="137.961" y="673.654" width="1.25798" height="1.25798" fill="white"/>
<rect opacity="0.4" x="816.979" y="398.677" width="1.25798" height="1.25798" fill="white"/>
<path opacity="0.4" d="M177.428 696.792L177.768 697.71L178.686 698.05L177.768 698.39L177.428 699.308L177.088 698.39L176.17 698.05L177.088 697.71L177.428 696.792Z" fill="#C2CDE7"/>
<path d="M170.418 61.5383L170.758 62.4565L171.676 62.7963L170.758 63.1361L170.418 64.0543L170.078 63.1361L169.16 62.7963L170.078 62.4565L170.418 61.5383Z" fill="#C2CDE7"/>
<path opacity="0.4" d="M276.203 457.705L276.543 458.623L277.461 458.963L276.543 459.302L276.203 460.221L275.863 459.302L274.945 458.963L275.863 458.623L276.203 457.705Z" fill="#C2CDE7"/>
<path d="M1145.09 246.492L1145.43 247.41L1146.35 247.75L1145.43 248.089L1145.09 249.008L1144.75 248.089L1143.83 247.75L1144.75 247.41L1145.09 246.492Z" fill="#C2CDE7"/>
<path opacity="0.4" d="M142.126 735.201L142.466 736.119L143.384 736.459L142.466 736.799L142.126 737.717L141.786 736.799L140.868 736.459L141.786 736.119L142.126 735.201Z" fill="#C2CDE7"/>
<path opacity="0.4" d="M559.178 460.048L559.518 460.966L560.436 461.306L559.518 461.646L559.178 462.564L558.838 461.646L557.92 461.306L558.838 460.966L559.178 460.048Z" fill="#C2CDE7"/>
<path d="M893.457 271.71L893.796 272.629L894.715 272.968L893.796 273.308L893.457 274.226L893.117 273.308L892.199 272.968L893.117 272.629L893.457 271.71Z" fill="#C2CDE7"/>
<path d="M214.788 216.833L215.128 217.751L216.046 218.091L215.128 218.43L214.788 219.348L214.448 218.43L213.53 218.091L214.448 217.751L214.788 216.833Z" fill="#C2CDE7"/>
<path opacity="0.4" d="M823.291 724.236L823.631 725.154L824.549 725.494L823.631 725.833L823.291 726.752L822.951 725.833L822.033 725.494L822.951 725.154L823.291 724.236Z" fill="#C2CDE7"/>
<path opacity="0.4" d="M1037.83 621.813L1038.17 622.731L1039.09 623.071L1038.17 623.411L1037.83 624.329L1037.49 623.411L1036.58 623.071L1037.49 622.731L1037.83 621.813Z" fill="#C2CDE7"/>
<path d="M361.881 134.229L362.221 135.147L363.139 135.487L362.221 135.827L361.881 136.745L361.542 135.827L360.623 135.487L361.542 135.147L361.881 134.229Z" fill="#C2CDE7"/>
<path d="M65.0099 280.948L65.3497 281.866L66.2679 282.206L65.3497 282.546L65.0099 283.464L64.6702 282.546L63.752 282.206L64.6702 281.866L65.0099 280.948Z" fill="#C2CDE7"/>
<path opacity="0.4" d="M1233.56 649.833L1233.9 650.751L1234.82 651.091L1233.9 651.431L1233.56 652.349L1233.22 651.431L1232.3 651.091L1233.22 650.751L1233.56 649.833Z" fill="#C2CDE7"/>
<path opacity="0.4" d="M1298.1 400.431L1298.44 401.349L1299.36 401.689L1298.44 402.028L1298.1 402.947L1297.76 402.028L1296.84 401.689L1297.76 401.349L1298.1 400.431Z" fill="#C2CDE7"/>
<path d="M1072.05 646.721L1072.38 647.64L1073.3 647.979L1072.38 648.319L1072.05 649.237L1071.71 648.319L1070.79 647.979L1071.71 647.64L1072.05 646.721Z" fill="#C2CDE7"/>
<path d="M397.146 210.375L397.485 211.293L398.404 211.633L397.485 211.973L397.146 212.891L396.806 211.973L395.888 211.633L396.806 211.293L397.146 210.375Z" fill="#C2CDE7"/>
<path opacity="0.4" d="M1292.22 514.582L1292.56 515.5L1293.48 515.84L1292.56 516.18L1292.22 517.098L1291.88 516.18L1290.96 515.84L1291.88 515.5L1292.22 514.582Z" fill="#C2CDE7"/>
<path d="M358.836 788.154L359.176 789.072L360.094 789.412L359.176 789.752L358.836 790.67L358.496 789.752L357.578 789.412L358.496 789.072L358.836 788.154Z" fill="#C2CDE7"/>
<path opacity="0.4" d="M679.917 599.726L680.257 600.644L681.175 600.984L680.257 601.323L679.917 602.242L679.578 601.323L678.659 600.984L679.578 600.644L679.917 599.726Z" fill="#C2CDE7"/>
<path d="M762.233 161.47L762.572 162.388L763.491 162.728L762.572 163.068L762.233 163.986L761.893 163.068L760.975 162.728L761.893 162.388L762.233 161.47Z" fill="#C2CDE7"/>
<path opacity="0.4" d="M1410.75 357.581L1411.09 358.499L1412.01 358.839L1411.09 359.178L1410.75 360.097L1410.41 359.178L1409.49 358.839L1410.41 358.499L1410.75 357.581Z" fill="#C2CDE7"/>
<path opacity="0.4" d="M723.545 129.468L723.885 130.386L724.803 130.726L723.885 131.066L723.545 131.984L723.205 131.066L722.287 130.726L723.205 130.386L723.545 129.468Z" fill="#C2CDE7"/>
<path opacity="0.4" d="M1274.47 215.983L1274.81 216.901L1275.73 217.241L1274.81 217.581L1274.47 218.499L1274.13 217.581L1273.21 217.241L1274.13 216.901L1274.47 215.983Z" fill="#C2CDE7"/>
<path d="M1297.61 486.58L1297.95 487.499L1298.87 487.838L1297.95 488.178L1297.61 489.096L1297.27 488.178L1296.35 487.838L1297.27 487.499L1297.61 486.58Z" fill="#C2CDE7"/>
<path opacity="0.4" d="M825.432 292.266L825.772 293.185L826.69 293.524L825.772 293.864L825.432 294.782L825.092 293.864L824.174 293.524L825.092 293.185L825.432 292.266Z" fill="#C2CDE7"/>
<path opacity="0.4" d="M162.762 570.927L163.102 571.845L164.02 572.185L163.102 572.525L162.762 573.443L162.422 572.525L161.504 572.185L162.422 571.845L162.762 570.927Z" fill="#C2CDE7"/>
</g>
</g>
<g clip-path="url(#clip2_89013_11)">
<g clip-path="url(#clip3_89013_11)">
<g clip-path="url(#clip4_89013_11)">
<mask id="mask0_89013_11" style="mask-type:luminance" maskUnits="userSpaceOnUse" x="156" y="0" width="1128" height="380">
<path d="M156 0H1284V380H156V0Z" fill="white"/>
</mask>
<g mask="url(#mask0_89013_11)">
<mask id="mask1_89013_11" style="mask-type:luminance" maskUnits="userSpaceOnUse" x="156" y="0" width="1128" height="380">
<path d="M156 0H1284V380H156V0Z" fill="white"/>
</mask>
<g mask="url(#mask1_89013_11)">
<mask id="mask2_89013_11" style="mask-type:alpha" maskUnits="userSpaceOnUse" x="156" y="-466" width="1128" height="800">
<path d="M156 -466H1284V334H156V-466Z" fill="url(#paint1_radial_89013_11)"/>
</mask>
<g mask="url(#mask2_89013_11)">
<path d="M156 -466H228V334H156V-466Z" fill="url(#paint2_linear_89013_11)" fill-opacity="0.2"/>
<path d="M156.5 -465.5H227.5V333.5H156.5V-465.5Z" stroke="url(#paint3_linear_89013_11)" stroke-opacity="0.2"/>
<path d="M252 -466H324V334H252V-466Z" fill="url(#paint4_linear_89013_11)" fill-opacity="0.2"/>
<path d="M252.5 -465.5H323.5V333.5H252.5V-465.5Z" stroke="url(#paint5_linear_89013_11)" stroke-opacity="0.2"/>
<path d="M348 -466H420V334H348V-466Z" fill="url(#paint6_linear_89013_11)" fill-opacity="0.2"/>
<path d="M348.5 -465.5H419.5V333.5H348.5V-465.5Z" stroke="url(#paint7_linear_89013_11)" stroke-opacity="0.2"/>
<path d="M444 -466H516V334H444V-466Z" fill="url(#paint8_linear_89013_11)" fill-opacity="0.2"/>
<path d="M444.5 -465.5H515.5V333.5H444.5V-465.5Z" stroke="url(#paint9_linear_89013_11)" stroke-opacity="0.2"/>
<path d="M540 -466H612V334H540V-466Z" fill="url(#paint10_linear_89013_11)" fill-opacity="0.2"/>
<path d="M540.5 -465.5H611.5V333.5H540.5V-465.5Z" stroke="url(#paint11_linear_89013_11)" stroke-opacity="0.2"/>
<path d="M636 -466H708V334H636V-466Z" fill="url(#paint12_linear_89013_11)" fill-opacity="0.2"/>
<path d="M636.5 -465.5H707.5V333.5H636.5V-465.5Z" stroke="url(#paint13_linear_89013_11)" stroke-opacity="0.2"/>
<path d="M732 -466H804V334H732V-466Z" fill="url(#paint14_linear_89013_11)" fill-opacity="0.2"/>
<path d="M732.5 -465.5H803.5V333.5H732.5V-465.5Z" stroke="url(#paint15_linear_89013_11)" stroke-opacity="0.2"/>
<path d="M828 -466H900V334H828V-466Z" fill="url(#paint16_linear_89013_11)" fill-opacity="0.2"/>
<path d="M828.5 -465.5H899.5V333.5H828.5V-465.5Z" stroke="url(#paint17_linear_89013_11)" stroke-opacity="0.2"/>
<path d="M924 -466H996V334H924V-466Z" fill="url(#paint18_linear_89013_11)" fill-opacity="0.2"/>
<path d="M924.5 -465.5H995.5V333.5H924.5V-465.5Z" stroke="url(#paint19_linear_89013_11)" stroke-opacity="0.2"/>
<path d="M1020 -466H1092V334H1020V-466Z" fill="url(#paint20_linear_89013_11)" fill-opacity="0.2"/>
<path d="M1020.5 -465.5H1091.5V333.5H1020.5V-465.5Z" stroke="url(#paint21_linear_89013_11)" stroke-opacity="0.2"/>
<path d="M1116 -466H1188V334H1116V-466Z" fill="url(#paint22_linear_89013_11)" fill-opacity="0.2"/>
<path d="M1116.5 -465.5H1187.5V333.5H1116.5V-465.5Z" stroke="url(#paint23_linear_89013_11)" stroke-opacity="0.2"/>
<path d="M1212 -466H1284V334H1212V-466Z" fill="url(#paint24_linear_89013_11)" fill-opacity="0.2"/>
<path d="M1212.5 -465.5H1283.5V333.5H1212.5V-465.5Z" stroke="url(#paint25_linear_89013_11)" stroke-opacity="0.2"/>
</g>
</g>
</g>
</g>
</g>
</g>
<g clip-path="url(#clip5_89013_11)">
<g clip-path="url(#clip6_89013_11)">
<g clip-path="url(#clip7_89013_11)">
<mask id="mask3_89013_11" style="mask-type:luminance" maskUnits="userSpaceOnUse" x="607" y="-250" width="1440" height="800">
<path d="M607 -250H2047V550H607V-250Z" fill="white"/>
</mask>
<g mask="url(#mask3_89013_11)">
<g filter="url(#filter0_f_89013_11)">
<path d="M1532 -530.087L1724.78 -816L1573.57 -506.087L1123.57 273.336L962.785 503.823L1082 249.336L1532 -530.087Z" fill="white" fill-opacity="0.1"/>
</g>
<g filter="url(#filter1_f_89013_11)">
<path d="M1780.6 -729.087L1973.39 -1015L1822.17 -705.087L1372.17 74.3359L1211.39 304.823L1330.6 50.3359L1780.6 -729.087Z" fill="white" fill-opacity="0.1"/>
</g>
<g filter="url(#filter2_f_89013_11)">
</g>
<g filter="url(#filter3_f_89013_11)">
<path d="M1517 -729.087L1709.78 -1015L1558.57 -705.087L1108.57 74.3359L947.785 304.823L1067 50.3359L1517 -729.087Z" fill="white" fill-opacity="0.1"/>
</g>
<g filter="url(#filter4_f_89013_11)">
</g>
</g>
</g>
</g>
</g>
<g clip-path="url(#clip8_89013_11)">
<g clip-path="url(#clip9_89013_11)">
<g clip-path="url(#clip10_89013_11)">
<mask id="mask4_89013_11" style="mask-type:luminance" maskUnits="userSpaceOnUse" x="-745" y="-250" width="1440" height="800">
<path d="M695 -250H-745V550H695V-250Z" fill="white"/>
</mask>
<g mask="url(#mask4_89013_11)">
<g filter="url(#filter5_f_89013_11)">
<path d="M-230 -530.087L-422.78 -816L-271.569 -506.087L178.431 273.336L339.215 503.823L220 249.336L-230 -530.087Z" fill="white" fill-opacity="0.1"/>
</g>
<g filter="url(#filter6_f_89013_11)">
<path d="M-478.6 -729.087L-671.39 -1015L-520.17 -705.087L-70.1719 74.3359L90.613 304.823L-28.603 50.3359L-478.6 -729.087Z" fill="white" fill-opacity="0.1"/>
</g>
<g filter="url(#filter7_f_89013_11)">
<path d="M-215 -729.087L-407.78 -1015L-256.569 -705.087L193.431 74.3359L354.215 304.823L235 50.3359L-215 -729.087Z" fill="white" fill-opacity="0.1"/>
</g>
<g filter="url(#filter8_f_89013_11)">
</g>
</g>
</g>
</g>
</g>
<rect width="1" height="260" transform="translate(252)" fill="url(#paint26_linear_89013_11)"/>
<g clip-path="url(#clip11_89013_11)">
<rect x="348" y="-89.24" width="1" height="120" rx="0.5" fill="url(#paint27_linear_89013_11)"/>
<rect width="1" height="300" transform="translate(348)" fill="url(#paint28_linear_89013_11)"/>
</g>
<g clip-path="url(#clip12_89013_11)">
<rect x="419" y="290.42" width="1" height="80" rx="0.5" fill="url(#paint29_linear_89013_11)"/>
<rect width="1" height="320" transform="translate(419)" fill="url(#paint30_linear_89013_11)"/>
</g>
<g clip-path="url(#clip13_89013_11)">
<rect x="1020" y="290.42" width="1" height="80" rx="0.5" fill="url(#paint31_linear_89013_11)"/>
<rect width="1" height="320" transform="translate(1020)" fill="url(#paint32_linear_89013_11)"/>
</g>
<g clip-path="url(#clip14_89013_11)">
<rect x="1091" y="-98.9697" width="1" height="120" rx="0.5" fill="url(#paint33_linear_89013_11)"/>
<rect width="1" height="300" transform="translate(1091)" fill="url(#paint34_linear_89013_11)"/>
</g>
<rect width="1" height="260" transform="translate(1187)" fill="url(#paint35_linear_89013_11)"/>
</g>
<defs>
<filter id="filter0_f_89013_11" x="882.785" y="-896" width="921.995" height="1479.82" filterUnits="userSpaceOnUse" color-interpolation-filters="sRGB">
<feFlood flood-opacity="0" result="BackgroundImageFix"/>
<feBlend mode="normal" in="SourceGraphic" in2="BackgroundImageFix" result="shape"/>
<feGaussianBlur stdDeviation="40" result="effect1_foregroundBlur_89013_11"/>
</filter>
<filter id="filter1_f_89013_11" x="1151.39" y="-1075" width="882.003" height="1439.82" filterUnits="userSpaceOnUse" color-interpolation-filters="sRGB">
<feFlood flood-opacity="0" result="BackgroundImageFix"/>
<feBlend mode="normal" in="SourceGraphic" in2="BackgroundImageFix" result="shape"/>
<feGaussianBlur stdDeviation="30" result="effect1_foregroundBlur_89013_11"/>
</filter>
<filter id="filter2_f_89013_11" x="1403.78" y="-1294" width="921.995" height="1479.82" filterUnits="userSpaceOnUse" color-interpolation-filters="sRGB">
<feFlood flood-opacity="0" result="BackgroundImageFix"/>
<feBlend mode="normal" in="SourceGraphic" in2="BackgroundImageFix" result="shape"/>
<feGaussianBlur stdDeviation="40" result="effect1_foregroundBlur_89013_11"/>
</filter>
<filter id="filter3_f_89013_11" x="887.785" y="-1075" width="881.995" height="1439.82" filterUnits="userSpaceOnUse" color-interpolation-filters="sRGB">
<feFlood flood-opacity="0" result="BackgroundImageFix"/>
<feBlend mode="normal" in="SourceGraphic" in2="BackgroundImageFix" result="shape"/>
<feGaussianBlur stdDeviation="30" result="effect1_foregroundBlur_89013_11"/>
</filter>
<filter id="filter4_f_89013_11" x="882.785" y="-1400" width="921.995" height="1479.82" filterUnits="userSpaceOnUse" color-interpolation-filters="sRGB">
<feFlood flood-opacity="0" result="BackgroundImageFix"/>
<feBlend mode="normal" in="SourceGraphic" in2="BackgroundImageFix" result="shape"/>
<feGaussianBlur stdDeviation="40" result="effect1_foregroundBlur_89013_11"/>
</filter>
<filter id="filter5_f_89013_11" x="-502.78" y="-896" width="921.995" height="1479.82" filterUnits="userSpaceOnUse" color-interpolation-filters="sRGB">
<feFlood flood-opacity="0" result="BackgroundImageFix"/>
<feBlend mode="normal" in="SourceGraphic" in2="BackgroundImageFix" result="shape"/>
<feGaussianBlur stdDeviation="40" result="effect1_foregroundBlur_89013_11"/>
</filter>
<filter id="filter6_f_89013_11" x="-731.39" y="-1075" width="882.003" height="1439.82" filterUnits="userSpaceOnUse" color-interpolation-filters="sRGB">
<feFlood flood-opacity="0" result="BackgroundImageFix"/>
<feBlend mode="normal" in="SourceGraphic" in2="BackgroundImageFix" result="shape"/>
<feGaussianBlur stdDeviation="30" result="effect1_foregroundBlur_89013_11"/>
</filter>
<filter id="filter7_f_89013_11" x="-467.78" y="-1075" width="881.995" height="1439.82" filterUnits="userSpaceOnUse" color-interpolation-filters="sRGB">
<feFlood flood-opacity="0" result="BackgroundImageFix"/>
<feBlend mode="normal" in="SourceGraphic" in2="BackgroundImageFix" result="shape"/>
<feGaussianBlur stdDeviation="30" result="effect1_foregroundBlur_89013_11"/>
</filter>
<filter id="filter8_f_89013_11" x="-502.78" y="-1400" width="921.995" height="1479.82" filterUnits="userSpaceOnUse" color-interpolation-filters="sRGB">
<feFlood flood-opacity="0" result="BackgroundImageFix"/>
<feBlend mode="normal" in="SourceGraphic" in2="BackgroundImageFix" result="shape"/>
<feGaussianBlur stdDeviation="40" result="effect1_foregroundBlur_89013_11"/>
</filter>
<radialGradient id="paint0_radial_89013_11" cx="0" cy="0" r="1" gradientUnits="userSpaceOnUse" gradientTransform="translate(720 -37.7041) rotate(90) scale(502.704 1168.72)">
<stop stop-color="#232BFF" stop-opacity="0.6"/>
<stop offset="1" stop-color="#0B0E14" stop-opacity="0"/>
</radialGradient>
<radialGradient id="paint1_radial_89013_11" cx="0" cy="0" r="1" gradientUnits="userSpaceOnUse" gradientTransform="translate(720 -66) rotate(90) scale(400 564)">
<stop stop-color="#D9D9D9"/>
<stop offset="1" stop-color="#D9D9D9" stop-opacity="0"/>
</radialGradient>
<linearGradient id="paint2_linear_89013_11" x1="192" y1="-466" x2="192" y2="334" gradientUnits="userSpaceOnUse">
<stop stop-color="#02031C" stop-opacity="0"/>
<stop offset="1" stop-color="#CECEFB"/>
</linearGradient>
<linearGradient id="paint3_linear_89013_11" x1="192" y1="-466" x2="192" y2="334" gradientUnits="userSpaceOnUse">
<stop stop-color="#02031C" stop-opacity="0"/>
<stop offset="1" stop-color="#CECEFB"/>
</linearGradient>
<linearGradient id="paint4_linear_89013_11" x1="288" y1="-466" x2="288" y2="334" gradientUnits="userSpaceOnUse">
<stop stop-color="#02031C" stop-opacity="0"/>
<stop offset="1" stop-color="#CECEFB"/>
</linearGradient>
<linearGradient id="paint5_linear_89013_11" x1="288" y1="-466" x2="288" y2="334" gradientUnits="userSpaceOnUse">
<stop stop-color="#02031C" stop-opacity="0"/>
<stop offset="1" stop-color="#CECEFB"/>
</linearGradient>
<linearGradient id="paint6_linear_89013_11" x1="384" y1="-466" x2="384" y2="334" gradientUnits="userSpaceOnUse">
<stop stop-color="#02031C" stop-opacity="0"/>
<stop offset="1" stop-color="#CECEFB"/>
</linearGradient>
<linearGradient id="paint7_linear_89013_11" x1="384" y1="-466" x2="384" y2="334" gradientUnits="userSpaceOnUse">
<stop stop-color="#02031C" stop-opacity="0"/>
<stop offset="1" stop-color="#CECEFB"/>
</linearGradient>
<linearGradient id="paint8_linear_89013_11" x1="480" y1="-466" x2="480" y2="334" gradientUnits="userSpaceOnUse">
<stop stop-color="#02031C" stop-opacity="0"/>
<stop offset="1" stop-color="#CECEFB"/>
</linearGradient>
<linearGradient id="paint9_linear_89013_11" x1="480" y1="-466" x2="480" y2="334" gradientUnits="userSpaceOnUse">
<stop stop-color="#02031C" stop-opacity="0"/>
<stop offset="1" stop-color="#CECEFB"/>
</linearGradient>
<linearGradient id="paint10_linear_89013_11" x1="576" y1="-466" x2="576" y2="334" gradientUnits="userSpaceOnUse">
<stop stop-color="#02031C" stop-opacity="0"/>
<stop offset="1" stop-color="#CECEFB"/>
</linearGradient>
<linearGradient id="paint11_linear_89013_11" x1="576" y1="-466" x2="576" y2="334" gradientUnits="userSpaceOnUse">
<stop stop-color="#02031C" stop-opacity="0"/>
<stop offset="1" stop-color="#CECEFB"/>
</linearGradient>
<linearGradient id="paint12_linear_89013_11" x1="672" y1="-466" x2="672" y2="334" gradientUnits="userSpaceOnUse">
<stop stop-color="#02031C" stop-opacity="0"/>
<stop offset="1" stop-color="#CECEFB"/>
</linearGradient>
<linearGradient id="paint13_linear_89013_11" x1="672" y1="-466" x2="672" y2="334" gradientUnits="userSpaceOnUse">
<stop stop-color="#02031C" stop-opacity="0"/>
<stop offset="1" stop-color="#CECEFB"/>
</linearGradient>
<linearGradient id="paint14_linear_89013_11" x1="768" y1="-466" x2="768" y2="334" gradientUnits="userSpaceOnUse">
<stop stop-color="#02031C" stop-opacity="0"/>
<stop offset="1" stop-color="#CECEFB"/>
</linearGradient>
<linearGradient id="paint15_linear_89013_11" x1="768" y1="-466" x2="768" y2="334" gradientUnits="userSpaceOnUse">
<stop stop-color="#02031C" stop-opacity="0"/>
<stop offset="1" stop-color="#CECEFB"/>
</linearGradient>
<linearGradient id="paint16_linear_89013_11" x1="864" y1="-466" x2="864" y2="334" gradientUnits="userSpaceOnUse">
<stop stop-color="#02031C" stop-opacity="0"/>
<stop offset="1" stop-color="#CECEFB"/>
</linearGradient>
<linearGradient id="paint17_linear_89013_11" x1="864" y1="-466" x2="864" y2="334" gradientUnits="userSpaceOnUse">
<stop stop-color="#02031C" stop-opacity="0"/>
<stop offset="1" stop-color="#CECEFB"/>
</linearGradient>
<linearGradient id="paint18_linear_89013_11" x1="960" y1="-466" x2="960" y2="334" gradientUnits="userSpaceOnUse">
<stop stop-color="#02031C" stop-opacity="0"/>
<stop offset="1" stop-color="#CECEFB"/>
</linearGradient>
<linearGradient id="paint19_linear_89013_11" x1="960" y1="-466" x2="960" y2="334" gradientUnits="userSpaceOnUse">
<stop stop-color="#02031C" stop-opacity="0"/>
<stop offset="1" stop-color="#CECEFB"/>
</linearGradient>
<linearGradient id="paint20_linear_89013_11" x1="1056" y1="-466" x2="1056" y2="334" gradientUnits="userSpaceOnUse">
<stop stop-color="#02031C" stop-opacity="0"/>
<stop offset="1" stop-color="#CECEFB"/>
</linearGradient>
<linearGradient id="paint21_linear_89013_11" x1="1056" y1="-466" x2="1056" y2="334" gradientUnits="userSpaceOnUse">
<stop stop-color="#02031C" stop-opacity="0"/>
<stop offset="1" stop-color="#CECEFB"/>
</linearGradient>
<linearGradient id="paint22_linear_89013_11" x1="1152" y1="-466" x2="1152" y2="334" gradientUnits="userSpaceOnUse">
<stop stop-color="#02031C" stop-opacity="0"/>
<stop offset="1" stop-color="#CECEFB"/>
</linearGradient>
<linearGradient id="paint23_linear_89013_11" x1="1152" y1="-466" x2="1152" y2="334" gradientUnits="userSpaceOnUse">
<stop stop-color="#02031C" stop-opacity="0"/>
<stop offset="1" stop-color="#CECEFB"/>
</linearGradient>
<linearGradient id="paint24_linear_89013_11" x1="1248" y1="-466" x2="1248" y2="334" gradientUnits="userSpaceOnUse">
<stop stop-color="#02031C" stop-opacity="0"/>
<stop offset="1" stop-color="#CECEFB"/>
</linearGradient>
<linearGradient id="paint25_linear_89013_11" x1="1248" y1="-466" x2="1248" y2="334" gradientUnits="userSpaceOnUse">
<stop stop-color="#02031C" stop-opacity="0"/>
<stop offset="1" stop-color="#CECEFB"/>
</linearGradient>
<linearGradient id="paint26_linear_89013_11" x1="0.500002" y1="0" x2="0.500002" y2="260" gradientUnits="userSpaceOnUse">
<stop stop-color="#02031C"/>
<stop offset="0.3" stop-color="#02031C" stop-opacity="0"/>
<stop offset="0.697368" stop-color="#02031C" stop-opacity="0"/>
<stop offset="1" stop-color="#02031C"/>
</linearGradient>
<linearGradient id="paint27_linear_89013_11" x1="348.5" y1="-89.24" x2="348.5" y2="30.76" gradientUnits="userSpaceOnUse">
<stop offset="0.195132" stop-color="#02031C" stop-opacity="0"/>
<stop offset="1" stop-color="#865BFF" stop-opacity="0.5"/>
</linearGradient>
<linearGradient id="paint28_linear_89013_11" x1="0.5" y1="0" x2="0.5" y2="300" gradientUnits="userSpaceOnUse">
<stop stop-color="#02031C"/>
<stop offset="0.3" stop-color="#02031C" stop-opacity="0"/>
<stop offset="0.697368" stop-color="#02031C" stop-opacity="0"/>
<stop offset="1" stop-color="#02031C"/>
</linearGradient>
<linearGradient id="paint29_linear_89013_11" x1="419.5" y1="290.42" x2="419.5" y2="370.42" gradientUnits="userSpaceOnUse">
<stop offset="0.195132" stop-color="#02031C" stop-opacity="0"/>
<stop offset="1" stop-color="#865BFF" stop-opacity="0.8"/>
</linearGradient>
<linearGradient id="paint30_linear_89013_11" x1="0.499992" y1="0" x2="0.499992" y2="320" gradientUnits="userSpaceOnUse">
<stop stop-color="#02031C"/>
<stop offset="0.3" stop-color="#02031C" stop-opacity="0"/>
<stop offset="0.697368" stop-color="#02031C" stop-opacity="0"/>
<stop offset="1" stop-color="#02031C"/>
</linearGradient>
<linearGradient id="paint31_linear_89013_11" x1="1020.5" y1="290.42" x2="1020.5" y2="370.42" gradientUnits="userSpaceOnUse">
<stop offset="0.195132" stop-color="#02031C" stop-opacity="0"/>
<stop offset="1" stop-color="#865BFF" stop-opacity="0.8"/>
</linearGradient>
<linearGradient id="paint32_linear_89013_11" x1="0.499992" y1="0" x2="0.499992" y2="320" gradientUnits="userSpaceOnUse">
<stop stop-color="#02031C"/>
<stop offset="0.3" stop-color="#02031C" stop-opacity="0"/>
<stop offset="0.697368" stop-color="#02031C" stop-opacity="0"/>
<stop offset="1" stop-color="#02031C"/>
</linearGradient>
<linearGradient id="paint33_linear_89013_11" x1="1091.5" y1="-98.9697" x2="1091.5" y2="21.0303" gradientUnits="userSpaceOnUse">
<stop offset="0.195132" stop-color="#02031C" stop-opacity="0"/>
<stop offset="1" stop-color="#865BFF" stop-opacity="0.5"/>
</linearGradient>
<linearGradient id="paint34_linear_89013_11" x1="0.5" y1="0" x2="0.5" y2="300" gradientUnits="userSpaceOnUse">
<stop stop-color="#02031C"/>
<stop offset="0.3" stop-color="#02031C" stop-opacity="0"/>
<stop offset="0.697368" stop-color="#02031C" stop-opacity="0"/>
<stop offset="1" stop-color="#02031C"/>
</linearGradient>
<linearGradient id="paint35_linear_89013_11" x1="0.500002" y1="0" x2="0.500002" y2="260" gradientUnits="userSpaceOnUse">
<stop stop-color="#02031C"/>
<stop offset="0.3" stop-color="#02031C" stop-opacity="0"/>
<stop offset="0.697368" stop-color="#02031C" stop-opacity="0"/>
<stop offset="1" stop-color="#02031C"/>
</linearGradient>
<clipPath id="clip0_89013_11">
<rect width="1440" height="820" fill="white"/>
</clipPath>
<clipPath id="clip1_89013_11">
<rect width="1440" height="820" fill="white"/>
</clipPath>
<clipPath id="clip2_89013_11">
<rect width="1128" height="380" fill="white" transform="translate(156)"/>
</clipPath>
<clipPath id="clip3_89013_11">
<rect width="1128" height="380" fill="white" transform="translate(156)"/>
</clipPath>
<clipPath id="clip4_89013_11">
<rect width="1128" height="380" fill="white" transform="translate(156)"/>
</clipPath>
<clipPath id="clip5_89013_11">
<rect width="1440" height="800" fill="white" transform="translate(607 -250)"/>
</clipPath>
<clipPath id="clip6_89013_11">
<rect width="1440" height="800" fill="white" transform="translate(607 -250)"/>
</clipPath>
<clipPath id="clip7_89013_11">
<rect width="1440" height="800" fill="white" transform="translate(607 -250)"/>
</clipPath>
<clipPath id="clip8_89013_11">
<rect width="1440" height="800" fill="white" transform="matrix(-1 0 0 1 695 -250)"/>
</clipPath>
<clipPath id="clip9_89013_11">
<rect width="1440" height="800" fill="white" transform="matrix(-1 0 0 1 695 -250)"/>
</clipPath>
<clipPath id="clip10_89013_11">
<rect width="1440" height="800" fill="white" transform="matrix(-1 0 0 1 695 -250)"/>
</clipPath>
<clipPath id="clip11_89013_11">
<rect width="1" height="300" fill="white" transform="translate(348)"/>
</clipPath>
<clipPath id="clip12_89013_11">
<rect width="1" height="320" fill="white" transform="translate(419)"/>
</clipPath>
<clipPath id="clip13_89013_11">
<rect width="1" height="320" fill="white" transform="translate(1020)"/>
</clipPath>
<clipPath id="clip14_89013_11">
<rect width="1" height="300" fill="white" transform="translate(1091)"/>
</clipPath>
</defs>
</svg>
