<svg width="500" height="750" viewBox="0 0 500 750" fill="none" xmlns="http://www.w3.org/2000/svg">
<rect width="500" height="750" fill="#2C2948"/>
<path d="M56.8811 389V361H67.3611C69.6278 361 71.5078 361.387 73.0011 362.16C74.4944 362.933 75.6011 363.973 76.3211 365.28C77.0411 366.587 77.4011 368.08 77.4011 369.76C77.4011 371.307 77.0544 372.733 76.3611 374.04C75.6678 375.347 74.5744 376.413 73.0811 377.24C71.5878 378.04 69.6811 378.44 67.3611 378.44H62.2811V389H56.8811ZM62.2811 374.08H67.0411C68.7744 374.08 70.0144 373.693 70.7611 372.92C71.5344 372.12 71.9211 371.067 71.9211 369.76C71.9211 368.373 71.5344 367.307 70.7611 366.56C70.0144 365.787 68.7744 365.4 67.0411 365.4H62.2811V374.08ZM89.8358 389.48C87.9158 389.48 86.1824 389.04 84.6358 388.16C83.1158 387.253 81.9024 386.013 80.9958 384.44C80.1158 382.84 79.6758 381.013 79.6758 378.96C79.6758 376.853 80.1158 375.013 80.9958 373.44C81.9024 371.84 83.1291 370.6 84.6758 369.72C86.2224 368.813 87.9558 368.36 89.8758 368.36C91.8224 368.36 93.5558 368.813 95.0758 369.72C96.6224 370.6 97.8358 371.84 98.7158 373.44C99.6224 375.013 100.076 376.84 100.076 378.92C100.076 381 99.6224 382.84 98.7158 384.44C97.8358 386.013 96.6224 387.253 95.0758 388.16C93.5291 389.04 91.7824 389.48 89.8358 389.48ZM89.8358 384.8C90.7424 384.8 91.5424 384.587 92.2358 384.16C92.9558 383.733 93.5158 383.08 93.9158 382.2C94.3424 381.32 94.5558 380.227 94.5558 378.92C94.5558 377.613 94.3424 376.533 93.9158 375.68C93.5158 374.8 92.9558 374.147 92.2358 373.72C91.5424 373.267 90.7558 373.04 89.8758 373.04C89.0224 373.04 88.2358 373.267 87.5158 373.72C86.7958 374.147 86.2224 374.8 85.7958 375.68C85.3958 376.533 85.1958 377.613 85.1958 378.92C85.1958 380.227 85.3958 381.32 85.7958 382.2C86.2224 383.08 86.7824 383.733 87.4758 384.16C88.1958 384.587 88.9824 384.8 89.8358 384.8ZM112.97 389.48C111.13 389.48 109.53 389.187 108.17 388.6C106.81 388.013 105.743 387.2 104.97 386.16C104.197 385.12 103.757 383.947 103.65 382.64H109.01C109.143 383.147 109.37 383.613 109.69 384.04C110.01 384.44 110.437 384.76 110.97 385C111.503 385.24 112.143 385.36 112.89 385.36C113.61 385.36 114.197 385.267 114.65 385.08C115.103 384.867 115.437 384.587 115.65 384.24C115.89 383.893 116.01 383.533 116.01 383.16C116.01 382.6 115.85 382.173 115.53 381.88C115.21 381.56 114.743 381.307 114.13 381.12C113.517 380.933 112.77 380.747 111.89 380.56C110.93 380.373 109.983 380.147 109.05 379.88C108.143 379.587 107.33 379.227 106.61 378.8C105.89 378.373 105.317 377.827 104.89 377.16C104.463 376.493 104.25 375.667 104.25 374.68C104.25 373.48 104.57 372.413 105.21 371.48C105.85 370.52 106.783 369.76 108.01 369.2C109.237 368.64 110.717 368.36 112.45 368.36C114.877 368.36 116.797 368.907 118.21 370C119.623 371.093 120.463 372.6 120.73 374.52H115.65C115.49 373.907 115.13 373.427 114.57 373.08C114.037 372.707 113.317 372.52 112.41 372.52C111.45 372.52 110.717 372.693 110.21 373.04C109.703 373.387 109.45 373.84 109.45 374.4C109.45 374.773 109.61 375.107 109.93 375.4C110.277 375.693 110.757 375.947 111.37 376.16C111.983 376.347 112.73 376.533 113.61 376.72C115.157 377.04 116.517 377.413 117.69 377.84C118.863 378.24 119.783 378.827 120.45 379.6C121.117 380.347 121.45 381.44 121.45 382.88C121.45 384.16 121.103 385.307 120.41 386.32C119.717 387.307 118.73 388.08 117.45 388.64C116.197 389.2 114.703 389.48 112.97 389.48ZM134.474 389C133.061 389 131.821 388.787 130.754 388.36C129.714 387.907 128.901 387.173 128.314 386.16C127.727 385.12 127.434 383.707 127.434 381.92V373.36H123.994V368.84H127.434L128.034 363.36H132.834V368.84H138.154V373.36H132.834V382C132.834 382.907 133.034 383.533 133.434 383.88C133.834 384.227 134.514 384.4 135.474 384.4H138.114V389H134.474ZM151.871 389.48C149.844 389.48 148.044 389.053 146.471 388.2C144.924 387.32 143.711 386.107 142.831 384.56C141.977 382.987 141.551 381.173 141.551 379.12C141.551 377.013 141.977 375.16 142.831 373.56C143.711 371.933 144.924 370.667 146.471 369.76C148.017 368.827 149.817 368.36 151.871 368.36C153.871 368.36 155.617 368.8 157.111 369.68C158.604 370.56 159.764 371.747 160.591 373.24C161.417 374.733 161.831 376.427 161.831 378.32C161.831 378.587 161.831 378.893 161.831 379.24C161.831 379.56 161.804 379.893 161.751 380.24H145.391V376.96H156.391C156.311 375.653 155.844 374.627 154.991 373.88C154.164 373.133 153.124 372.76 151.871 372.76C150.964 372.76 150.124 372.973 149.351 373.4C148.577 373.8 147.964 374.427 147.511 375.28C147.084 376.133 146.871 377.213 146.871 378.52V379.68C146.871 380.773 147.071 381.733 147.471 382.56C147.897 383.36 148.484 383.987 149.231 384.44C149.977 384.867 150.844 385.08 151.831 385.08C152.817 385.08 153.631 384.867 154.271 384.44C154.937 384.013 155.431 383.467 155.751 382.8H161.271C160.897 384.053 160.271 385.187 159.391 386.2C158.511 387.213 157.431 388.013 156.151 388.6C154.871 389.187 153.444 389.48 151.871 389.48ZM166.253 389V368.84H171.053L171.573 372.56C172.053 371.68 172.653 370.933 173.373 370.32C174.12 369.707 174.96 369.227 175.893 368.88C176.853 368.533 177.907 368.36 179.053 368.36V374.08H177.213C176.413 374.08 175.667 374.173 174.973 374.36C174.307 374.547 173.72 374.853 173.213 375.28C172.707 375.68 172.32 376.24 172.053 376.96C171.787 377.68 171.653 378.587 171.653 379.68V389H166.253ZM192.155 389V361H197.555L210.435 380.32V361H215.835V389H210.435L197.555 369.72V389H192.155ZM230.695 389.48C228.775 389.48 227.042 389.04 225.495 388.16C223.975 387.253 222.762 386.013 221.855 384.44C220.975 382.84 220.535 381.013 220.535 378.96C220.535 376.853 220.975 375.013 221.855 373.44C222.762 371.84 223.988 370.6 225.535 369.72C227.082 368.813 228.815 368.36 230.735 368.36C232.682 368.36 234.415 368.813 235.935 369.72C237.482 370.6 238.695 371.84 239.575 373.44C240.482 375.013 240.935 376.84 240.935 378.92C240.935 381 240.482 382.84 239.575 384.44C238.695 386.013 237.482 387.253 235.935 388.16C234.388 389.04 232.642 389.48 230.695 389.48ZM230.695 384.8C231.602 384.8 232.402 384.587 233.095 384.16C233.815 383.733 234.375 383.08 234.775 382.2C235.202 381.32 235.415 380.227 235.415 378.92C235.415 377.613 235.202 376.533 234.775 375.68C234.375 374.8 233.815 374.147 233.095 373.72C232.402 373.267 231.615 373.04 230.735 373.04C229.882 373.04 229.095 373.267 228.375 373.72C227.655 374.147 227.082 374.8 226.655 375.68C226.255 376.533 226.055 377.613 226.055 378.92C226.055 380.227 226.255 381.32 226.655 382.2C227.082 383.08 227.642 383.733 228.335 384.16C229.055 384.587 229.842 384.8 230.695 384.8ZM253.888 389C252.475 389 251.235 388.787 250.168 388.36C249.128 387.907 248.315 387.173 247.728 386.16C247.141 385.12 246.848 383.707 246.848 381.92V373.36H243.408V368.84H246.848L247.448 363.36H252.248V368.84H257.568V373.36H252.248V382C252.248 382.907 252.448 383.533 252.848 383.88C253.248 384.227 253.928 384.4 254.888 384.4H257.528V389H253.888ZM269.767 389L280.007 361H286.127L296.327 389H290.607L283.047 367.16L275.447 389H269.767ZM274.287 382.64L275.727 378.44H289.967L291.367 382.64H274.287ZM303.06 389L295.66 368.84H301.34L306.34 383.92L311.34 368.84H316.98L309.62 389H303.06ZM325.866 389.48C324.186 389.48 322.799 389.213 321.706 388.68C320.612 388.12 319.799 387.387 319.266 386.48C318.759 385.547 318.506 384.52 318.506 383.4C318.506 382.173 318.812 381.093 319.426 380.16C320.066 379.227 321.012 378.493 322.266 377.96C323.546 377.427 325.146 377.16 327.066 377.16H332.066C332.066 376.173 331.932 375.36 331.666 374.72C331.399 374.053 330.986 373.56 330.426 373.24C329.866 372.92 329.119 372.76 328.186 372.76C327.172 372.76 326.306 372.987 325.586 373.44C324.892 373.867 324.466 374.533 324.306 375.44H319.066C319.199 374 319.666 372.76 320.466 371.72C321.292 370.653 322.372 369.827 323.706 369.24C325.066 368.653 326.572 368.36 328.226 368.36C330.119 368.36 331.759 368.68 333.146 369.32C334.532 369.96 335.599 370.88 336.346 372.08C337.092 373.28 337.466 374.76 337.466 376.52V389H332.906L332.306 385.92C332.012 386.453 331.666 386.933 331.266 387.36C330.866 387.787 330.399 388.16 329.866 388.48C329.332 388.8 328.732 389.04 328.066 389.2C327.399 389.387 326.666 389.48 325.866 389.48ZM327.146 385.32C327.839 385.32 328.452 385.2 328.986 384.96C329.546 384.693 330.026 384.347 330.426 383.92C330.826 383.467 331.132 382.96 331.346 382.4C331.586 381.813 331.746 381.187 331.826 380.52V380.48H327.706C326.879 380.48 326.199 380.587 325.666 380.8C325.159 380.987 324.786 381.267 324.546 381.64C324.306 382.013 324.186 382.44 324.186 382.92C324.186 383.453 324.306 383.893 324.546 384.24C324.786 384.587 325.132 384.853 325.586 385.04C326.039 385.227 326.559 385.32 327.146 385.32ZM342.623 389V368.84H348.023V389H342.623ZM345.343 366.08C344.383 366.08 343.583 365.8 342.943 365.24C342.33 364.653 342.023 363.92 342.023 363.04C342.023 362.16 342.33 361.44 342.943 360.88C343.583 360.293 344.383 360 345.343 360C346.33 360 347.13 360.293 347.743 360.88C348.383 361.44 348.703 362.16 348.703 363.04C348.703 363.92 348.383 364.653 347.743 365.24C347.13 365.8 346.33 366.08 345.343 366.08ZM353.48 389V360.2H358.88V389H353.48ZM370.944 389.48C369.264 389.48 367.877 389.213 366.784 388.68C365.691 388.12 364.877 387.387 364.344 386.48C363.837 385.547 363.584 384.52 363.584 383.4C363.584 382.173 363.891 381.093 364.504 380.16C365.144 379.227 366.091 378.493 367.344 377.96C368.624 377.427 370.224 377.16 372.144 377.16H377.144C377.144 376.173 377.011 375.36 376.744 374.72C376.477 374.053 376.064 373.56 375.504 373.24C374.944 372.92 374.197 372.76 373.264 372.76C372.251 372.76 371.384 372.987 370.664 373.44C369.971 373.867 369.544 374.533 369.384 375.44H364.144C364.277 374 364.744 372.76 365.544 371.72C366.371 370.653 367.451 369.827 368.784 369.24C370.144 368.653 371.651 368.36 373.304 368.36C375.197 368.36 376.837 368.68 378.224 369.32C379.611 369.96 380.677 370.88 381.424 372.08C382.171 373.28 382.544 374.76 382.544 376.52V389H377.984L377.384 385.92C377.091 386.453 376.744 386.933 376.344 387.36C375.944 387.787 375.477 388.16 374.944 388.48C374.411 388.8 373.811 389.04 373.144 389.2C372.477 389.387 371.744 389.48 370.944 389.48ZM372.224 385.32C372.917 385.32 373.531 385.2 374.064 384.96C374.624 384.693 375.104 384.347 375.504 383.92C375.904 383.467 376.211 382.96 376.424 382.4C376.664 381.813 376.824 381.187 376.904 380.52V380.48H372.784C371.957 380.48 371.277 380.587 370.744 380.8C370.237 380.987 369.864 381.267 369.624 381.64C369.384 382.013 369.264 382.44 369.264 382.92C369.264 383.453 369.384 383.893 369.624 384.24C369.864 384.587 370.211 384.853 370.664 385.04C371.117 385.227 371.637 385.32 372.224 385.32ZM399.501 389.48C398.461 389.48 397.528 389.347 396.701 389.08C395.901 388.813 395.181 388.453 394.541 388C393.928 387.52 393.408 386.987 392.981 386.4L392.381 389H387.581V360.2H392.981V371.64C393.621 370.707 394.461 369.933 395.501 369.32C396.568 368.68 397.888 368.36 399.461 368.36C401.328 368.36 402.981 368.827 404.421 369.76C405.888 370.667 407.035 371.92 407.861 373.52C408.715 375.093 409.141 376.907 409.141 378.96C409.141 380.96 408.715 382.76 407.861 384.36C407.035 385.96 405.901 387.213 404.461 388.12C403.021 389.027 401.368 389.48 399.501 389.48ZM398.221 384.76C399.288 384.76 400.221 384.52 401.021 384.04C401.848 383.533 402.488 382.853 402.941 382C403.395 381.12 403.621 380.107 403.621 378.96C403.621 377.813 403.395 376.8 402.941 375.92C402.488 375.013 401.848 374.32 401.021 373.84C400.221 373.333 399.288 373.08 398.221 373.08C397.181 373.08 396.248 373.333 395.421 373.84C394.621 374.32 393.981 375 393.501 375.88C393.048 376.76 392.821 377.773 392.821 378.92C392.821 380.067 393.048 381.093 393.501 382C393.981 382.88 394.621 383.56 395.421 384.04C396.248 384.52 397.181 384.76 398.221 384.76ZM413.792 389V360.2H419.192V389H413.792ZM434.136 389.48C432.11 389.48 430.31 389.053 428.736 388.2C427.19 387.32 425.976 386.107 425.096 384.56C424.243 382.987 423.816 381.173 423.816 379.12C423.816 377.013 424.243 375.16 425.096 373.56C425.976 371.933 427.19 370.667 428.736 369.76C430.283 368.827 432.083 368.36 434.136 368.36C436.136 368.36 437.883 368.8 439.376 369.68C440.87 370.56 442.03 371.747 442.856 373.24C443.683 374.733 444.096 376.427 444.096 378.32C444.096 378.587 444.096 378.893 444.096 379.24C444.096 379.56 444.07 379.893 444.016 380.24H427.656V376.96H438.656C438.576 375.653 438.11 374.627 437.256 373.88C436.43 373.133 435.39 372.76 434.136 372.76C433.23 372.76 432.39 372.973 431.616 373.4C430.843 373.8 430.23 374.427 429.776 375.28C429.35 376.133 429.136 377.213 429.136 378.52V379.68C429.136 380.773 429.336 381.733 429.736 382.56C430.163 383.36 430.75 383.987 431.496 384.44C432.243 384.867 433.11 385.08 434.096 385.08C435.083 385.08 435.896 384.867 436.536 384.44C437.203 384.013 437.696 383.467 438.016 382.8H443.536C443.163 384.053 442.536 385.187 441.656 386.2C440.776 387.213 439.696 388.013 438.416 388.6C437.136 389.187 435.71 389.48 434.136 389.48Z" fill="white"/>
</svg>
