<svg width="15" height="15" viewBox="0 0 15 15" fill="none" xmlns="http://www.w3.org/2000/svg">
<path d="M8.7967 1.07438L10.1167 3.71438C10.2967 4.08188 10.7767 4.43437 11.1817 4.50187L13.5742 4.89937C15.1042 5.15438 15.4642 6.26437 14.3617 7.35938L12.5017 9.21937C12.1867 9.53437 12.0142 10.1419 12.1117 10.5769L12.6442 12.8794C13.0642 14.7019 12.0967 15.4069 10.4842 14.4544L8.2417 13.1269C7.8367 12.8869 7.1692 12.8869 6.7567 13.1269L4.5142 14.4544C2.9092 15.4069 1.9342 14.6944 2.3542 12.8794L2.8867 10.5769C2.9842 10.1419 2.8117 9.53437 2.4967 9.21937L0.636699 7.35938C-0.458301 6.26437 -0.1058 5.15438 1.4242 4.89937L3.8167 4.50187C4.2142 4.43437 4.6942 4.08188 4.8742 3.71438L6.1942 1.07438C6.9142 -0.358125 8.0842 -0.358125 8.7967 1.07438Z" fill="#FFCD1A"/>
</svg>
